# xmcd
#
# Track frame offsets:
#	150
#	16955
#	30957
#	49406
#	81586
#	105353
#	120058
#	138661
#	162114
#	177133
#	191832
#	210019
#
# Disc length: 3025 seconds
#
# Revision: 1
# Processed by: cddbd v1.5.2PL0 Copyright (c) Steve Scherf et al.
# Submitted via: audiograbber 1.83.01
#
DISCID=8e0bcf0c
DTITLE=Victor Aneiros Band - O Blues Do Amencer
DYEAR=2004
DGENRE=Blues
TTITLE0=Nota De Blues
TTITLE1=Avó Gaivota
TTITLE2=Ó Revés Caes Outra Vez
TTITLE3=O Ceo Está Chorando
TTITLE4=Bote 20 cts. Na Ranura
TTITLE5=Prestige Blues
TTITLE6=Delirando Pola Cidade
TTITLE7=Ningún Lugar Está Lonxe
TTITLE8=Home Solitario
TTITLE9=Non Me Deixes Morrer Aquí
TTITLE10=As Rapazas De Flores
TTITLE11=Blues Do Amencer
EXTD=
EXTT0=
EXTT1=
EXTT2=
EXTT3=
EXTT4=
EXTT5=
EXTT6=
EXTT7=
EXTT8=
EXTT9=
EXTT10=
EXTT11=
PLAYORDER=
